# xmcd CD database file
#
# Track frame offsets:
#	150
#	5814
#	21958
#	38413
#	57472
#	81349
#	100751
#	121514
#	127058
#	149278
#	167630
#	195475
#	213403
#	234989
#	243541
#	254085
#	271870
#	298020
#	316127
#	342590
#
# Disc length: 4717 seconds
#
# Revision: 0
# Processed by: cddbd v1.5.1PL0 Copyright (c) Steve Scherf et al.
# Submitted via: CDex 1.50
#
DISCID=24126b14
DTITLE=Various Artist - 30-35[サンゼロ・サンゴー]vol.1 もう一回，バンドやろうぜ！
DYEAR=2005
DGENRE=Other
TTITLE0=プロローグ
TTITLE1=ユニコーン - 大迷惑
TTITLE2=JUN SKY WALKER(S) - すてきな夜空
TTITLE3=ZIGGY - GLORIA
TTITLE4=パーソンズ - Deer Friends
TTITLE5=BUCK-TICK - JUST ONE MORE KISS
TTITLE6=レベッカ - フレンズ -remixed edition-
TTITLE7=故郷だより
TTITLE8=プリンセス プリンセス - DIAMONDS<ダイアモンド>
TTITLE9=ザ・ブーム - 星のラブレター
TTITLE10=エコーズ - ZOO
TTITLE11=TM NETWORK - GET WILD
TTITLE12=HOUND DOG - ff (フォルテシモ)
TTITLE13=練習スタジオにて
TTITLE14=カステラ - ビデオ買ってよ
TTITLE15=アンジー - 天井裏から愛を込めて
TTITLE16=LA-PPISCH - パヤパヤ
TTITLE17=SHOW-YA - 限界LOVERS
TTITLE18=X - 紅
TTITLE19=ヘチマコネクションズ - ヘチマ・ライダー
EXTD=YEAR: 2005
EXTT0=
EXTT1=
EXTT2=
EXTT3=
EXTT4=
EXTT5=
EXTT6=
EXTT7=
EXTT8=
EXTT9=
EXTT10=
EXTT11=
EXTT12=
EXTT13=
EXTT14=
EXTT15=
EXTT16=
EXTT17=
EXTT18=
EXTT19=
PLAYORDER=
